<?xml version="1.0" encoding="UTF-8"?>
<svg width="24px" height="28px" viewBox="0 0 24 28" version="1.1" xmlns="http://www.w3.org/2000/svg" xmlns:xlink="http://www.w3.org/1999/xlink">
    <!-- Generator: Sketch 41 (35326) - http://www.bohemiancoding.com/sketch -->
    <title>Shape</title>
    <desc>Created with Sketch.</desc>
    <defs></defs>
    <g id="Page-1" stroke="none" stroke-width="1" fill="none" fill-rule="evenodd">
        <path d="M23.414,17.414 L13.414,27.414 C12.633,28.195 11.367,28.195 10.586,27.414 L0.586,17.414 C-0.195,16.633 -0.195,15.367 0.586,14.586 C1.367,13.805 2.633,13.805 3.414,14.586 L10,21.172 L10,2 C10,0.895 10.895,3.55271368e-15 12,3.55271368e-15 C13.105,3.55271368e-15 14,0.895 14,2 L14,21.172 L20.586,14.586 C20.976,14.196 21.488,14 22,14 C22.512,14 23.024,14.195 23.414,14.586 C24.195,15.367 24.195,16.633 23.414,17.414 L23.414,17.414 Z" id="Shape" fill="#FFFFFF"></path>
    </g>
</svg>